<svg width="268" height="208" viewBox="0 0 268 208" fill="none" xmlns="http://www.w3.org/2000/svg">
<path d="M121.062 7.66016V11H119.938V2.46875H123.084C124.018 2.46875 124.748 2.70703 125.275 3.18359C125.807 3.66016 126.072 4.29102 126.072 5.07617C126.072 5.9043 125.812 6.54297 125.293 6.99219C124.777 7.4375 124.037 7.66016 123.072 7.66016H121.062ZM121.062 6.74023H123.084C123.686 6.74023 124.146 6.59961 124.467 6.31836C124.787 6.0332 124.947 5.62305 124.947 5.08789C124.947 4.58008 124.787 4.17383 124.467 3.86914C124.146 3.56445 123.707 3.40625 123.148 3.39453H121.062V6.74023ZM131.182 11C131.119 10.875 131.068 10.6523 131.029 10.332C130.525 10.8555 129.924 11.1172 129.225 11.1172C128.6 11.1172 128.086 10.9414 127.684 10.5898C127.285 10.2344 127.086 9.78516 127.086 9.24219C127.086 8.58203 127.336 8.07031 127.836 7.70703C128.34 7.33984 129.047 7.15625 129.957 7.15625H131.012V6.6582C131.012 6.2793 130.898 5.97852 130.672 5.75586C130.445 5.5293 130.111 5.41602 129.67 5.41602C129.283 5.41602 128.959 5.51367 128.697 5.70898C128.436 5.9043 128.305 6.14062 128.305 6.41797H127.215C127.215 6.10156 127.326 5.79688 127.549 5.50391C127.775 5.20703 128.08 4.97266 128.463 4.80078C128.85 4.62891 129.273 4.54297 129.734 4.54297C130.465 4.54297 131.037 4.72656 131.451 5.09375C131.865 5.45703 132.08 5.95898 132.096 6.59961V9.51758C132.096 10.0996 132.17 10.5625 132.318 10.9062V11H131.182ZM129.383 10.1738C129.723 10.1738 130.045 10.0859 130.35 9.91016C130.654 9.73438 130.875 9.50586 131.012 9.22461V7.92383H130.162C128.834 7.92383 128.17 8.3125 128.17 9.08984C128.17 9.42969 128.283 9.69531 128.51 9.88672C128.736 10.0781 129.027 10.1738 129.383 10.1738ZM133.537 7.77734C133.537 6.78906 133.766 6.00391 134.223 5.42188C134.68 4.83594 135.285 4.54297 136.039 4.54297C136.812 4.54297 137.416 4.81641 137.85 5.36328L137.902 4.66016H138.893V10.8477C138.893 11.668 138.648 12.3145 138.16 12.7871C137.676 13.2598 137.023 13.4961 136.203 13.4961C135.746 13.4961 135.299 13.3984 134.861 13.2031C134.424 13.0078 134.09 12.7402 133.859 12.4004L134.422 11.75C134.887 12.3242 135.455 12.6113 136.127 12.6113C136.654 12.6113 137.064 12.4629 137.357 12.166C137.654 11.8691 137.803 11.4512 137.803 10.9121V10.3672C137.369 10.8672 136.777 11.1172 136.027 11.1172C135.285 11.1172 134.684 10.8184 134.223 10.2207C133.766 9.62305 133.537 8.80859 133.537 7.77734ZM134.627 7.90039C134.627 8.61523 134.773 9.17773 135.066 9.58789C135.359 9.99414 135.77 10.1973 136.297 10.1973C136.98 10.1973 137.482 9.88672 137.803 9.26562V6.37109C137.471 5.76562 136.973 5.46289 136.309 5.46289C135.781 5.46289 135.369 5.66797 135.072 6.07812C134.775 6.48828 134.627 7.0957 134.627 7.90039ZM143.164 11.1172C142.305 11.1172 141.605 10.8359 141.066 10.2734C140.527 9.70703 140.258 8.95117 140.258 8.00586V7.80664C140.258 7.17773 140.377 6.61719 140.615 6.125C140.857 5.62891 141.193 5.24219 141.623 4.96484C142.057 4.68359 142.525 4.54297 143.029 4.54297C143.854 4.54297 144.494 4.81445 144.951 5.35742C145.408 5.90039 145.637 6.67773 145.637 7.68945V8.14062H141.342C141.357 8.76562 141.539 9.27148 141.887 9.6582C142.238 10.041 142.684 10.2324 143.223 10.2324C143.605 10.2324 143.93 10.1543 144.195 9.99805C144.461 9.8418 144.693 9.63477 144.893 9.37695L145.555 9.89258C145.023 10.709 144.227 11.1172 143.164 11.1172ZM143.029 5.43359C142.592 5.43359 142.225 5.59375 141.928 5.91406C141.631 6.23047 141.447 6.67578 141.377 7.25H144.553V7.16797C144.521 6.61719 144.373 6.19141 144.107 5.89062C143.842 5.58594 143.482 5.43359 143.029 5.43359ZM49.1738 182.01C49.1738 182.846 49.0332 183.576 48.752 184.201C48.4707 184.822 48.0723 185.297 47.5566 185.625C47.041 185.953 46.4395 186.117 45.752 186.117C45.0801 186.117 44.4844 185.953 43.9648 185.625C43.4453 185.293 43.041 184.822 42.752 184.213C42.4668 183.6 42.3203 182.891 42.3125 182.086V181.471C42.3125 180.65 42.4551 179.926 42.7402 179.297C43.0254 178.668 43.4277 178.188 43.9473 177.855C44.4707 177.52 45.0684 177.352 45.7402 177.352C46.4238 177.352 47.0254 177.518 47.5449 177.85C48.0684 178.178 48.4707 178.656 48.752 179.285C49.0332 179.91 49.1738 180.639 49.1738 181.471V182.01ZM48.0547 181.459C48.0547 180.447 47.8516 179.672 47.4453 179.133C47.0391 178.59 46.4707 178.318 45.7402 178.318C45.0293 178.318 44.4688 178.59 44.0586 179.133C43.6523 179.672 43.4434 180.422 43.4316 181.383V182.01C43.4316 182.99 43.6367 183.762 44.0469 184.324C44.4609 184.883 45.0293 185.162 45.752 185.162C46.4785 185.162 47.041 184.898 47.4395 184.371C47.8379 183.84 48.043 183.08 48.0547 182.092V181.459ZM54.6055 185.373C54.1836 185.869 53.5645 186.117 52.748 186.117C52.0723 186.117 51.5566 185.922 51.2012 185.531C50.8496 185.137 50.6719 184.555 50.668 183.785V179.66H51.752V183.756C51.752 184.717 52.1426 185.197 52.9238 185.197C53.752 185.197 54.3027 184.889 54.5762 184.271V179.66H55.6602V186H54.6289L54.6055 185.373ZM62.668 182.9C62.668 183.865 62.4473 184.643 62.0059 185.232C61.5645 185.822 60.9668 186.117 60.2129 186.117C59.4434 186.117 58.8379 185.873 58.3965 185.385V188.438H57.3125V179.66H58.3027L58.3555 180.363C58.7969 179.816 59.4102 179.543 60.1953 179.543C60.957 179.543 61.5586 179.83 62 180.404C62.4453 180.979 62.668 181.777 62.668 182.801V182.9ZM61.584 182.777C61.584 182.062 61.4316 181.498 61.127 181.084C60.8223 180.67 60.4043 180.463 59.873 180.463C59.2168 180.463 58.7246 180.754 58.3965 181.336V184.365C58.7207 184.943 59.2168 185.232 59.8848 185.232C60.4043 185.232 60.8164 185.027 61.1211 184.617C61.4297 184.203 61.584 183.59 61.584 182.777ZM67.7422 184.318C67.7422 184.025 67.6309 183.799 67.4082 183.639C67.1895 183.475 66.8047 183.334 66.2539 183.217C65.707 183.1 65.2715 182.959 64.9473 182.795C64.627 182.631 64.3887 182.436 64.2324 182.209C64.0801 181.982 64.0039 181.713 64.0039 181.4C64.0039 180.881 64.2227 180.441 64.6602 180.082C65.1016 179.723 65.6641 179.543 66.3477 179.543C67.0664 179.543 67.6484 179.729 68.0938 180.1C68.543 180.471 68.7676 180.945 68.7676 181.523H67.6777C67.6777 181.227 67.5508 180.971 67.2969 180.756C67.0469 180.541 66.7305 180.434 66.3477 180.434C65.9531 180.434 65.6445 180.52 65.4219 180.691C65.1992 180.863 65.0879 181.088 65.0879 181.365C65.0879 181.627 65.1914 181.824 65.3984 181.957C65.6055 182.09 65.9785 182.217 66.5176 182.338C67.0605 182.459 67.5 182.604 67.8359 182.771C68.1719 182.939 68.4199 183.143 68.5801 183.381C68.7441 183.615 68.8262 183.902 68.8262 184.242C68.8262 184.809 68.5996 185.264 68.1465 185.607C67.6934 185.947 67.1055 186.117 66.3828 186.117C65.875 186.117 65.4258 186.027 65.0352 185.848C64.6445 185.668 64.3379 185.418 64.1152 185.098C63.8965 184.773 63.7871 184.424 63.7871 184.049H64.8711C64.8906 184.412 65.0352 184.701 65.3047 184.916C65.5781 185.127 65.9375 185.232 66.3828 185.232C66.793 185.232 67.1211 185.15 67.3672 184.986C67.6172 184.818 67.7422 184.596 67.7422 184.318ZM74.4277 183.592H73.4492L73.373 177.469H74.5098L74.4277 183.592ZM73.332 185.455C73.332 185.279 73.3848 185.133 73.4902 185.016C73.5996 184.895 73.7598 184.834 73.9707 184.834C74.1816 184.834 74.3418 184.895 74.4512 185.016C74.5605 185.133 74.6152 185.279 74.6152 185.455C74.6152 185.631 74.5605 185.777 74.4512 185.895C74.3418 186.008 74.1816 186.064 73.9707 186.064C73.7598 186.064 73.5996 186.008 73.4902 185.895C73.3848 185.777 73.332 185.631 73.332 185.455ZM80.6621 186H79.5371V177.469H80.6621V186ZM83.7324 186H82.6484V177H83.7324V186ZM92.1406 184.318C92.1406 184.025 92.0293 183.799 91.8066 183.639C91.5879 183.475 91.2031 183.334 90.6523 183.217C90.1055 183.1 89.6699 182.959 89.3457 182.795C89.0254 182.631 88.7871 182.436 88.6309 182.209C88.4785 181.982 88.4023 181.713 88.4023 181.4C88.4023 180.881 88.6211 180.441 89.0586 180.082C89.5 179.723 90.0625 179.543 90.7461 179.543C91.4648 179.543 92.0469 179.729 92.4922 180.1C92.9414 180.471 93.166 180.945 93.166 181.523H92.0762C92.0762 181.227 91.9492 180.971 91.6953 180.756C91.4453 180.541 91.1289 180.434 90.7461 180.434C90.3516 180.434 90.043 180.52 89.8203 180.691C89.5977 180.863 89.4863 181.088 89.4863 181.365C89.4863 181.627 89.5898 181.824 89.7969 181.957C90.0039 182.09 90.377 182.217 90.916 182.338C91.459 182.459 91.8984 182.604 92.2344 182.771C92.5703 182.939 92.8184 183.143 92.9785 183.381C93.1426 183.615 93.2246 183.902 93.2246 184.242C93.2246 184.809 92.998 185.264 92.5449 185.607C92.0918 185.947 91.5039 186.117 90.7812 186.117C90.2734 186.117 89.8242 186.027 89.4336 185.848C89.043 185.668 88.7363 185.418 88.5137 185.098C88.2949 184.773 88.1855 184.424 88.1855 184.049H89.2695C89.2891 184.412 89.4336 184.701 89.7031 184.916C89.9766 185.127 90.3359 185.232 90.7812 185.232C91.1914 185.232 91.5195 185.15 91.7656 184.986C92.0156 184.818 92.1406 184.596 92.1406 184.318ZM97.2676 186.117C96.4082 186.117 95.709 185.836 95.1699 185.273C94.6309 184.707 94.3613 183.951 94.3613 183.006V182.807C94.3613 182.178 94.4805 181.617 94.7188 181.125C94.9609 180.629 95.2969 180.242 95.7266 179.965C96.1602 179.684 96.6289 179.543 97.1328 179.543C97.957 179.543 98.5977 179.814 99.0547 180.357C99.5117 180.9 99.7402 181.678 99.7402 182.689V183.141H95.4453C95.4609 183.766 95.6426 184.271 95.9902 184.658C96.3418 185.041 96.7871 185.232 97.3262 185.232C97.709 185.232 98.0332 185.154 98.2988 184.998C98.5645 184.842 98.7969 184.635 98.9961 184.377L99.6582 184.893C99.127 185.709 98.3301 186.117 97.2676 186.117ZM97.1328 180.434C96.6953 180.434 96.3281 180.594 96.0312 180.914C95.7344 181.23 95.5508 181.676 95.4805 182.25H98.6562V182.168C98.625 181.617 98.4766 181.191 98.2109 180.891C97.9453 180.586 97.5859 180.434 97.1328 180.434ZM102.02 179.66L102.049 180.363C102.514 179.816 103.141 179.543 103.93 179.543C104.816 179.543 105.42 179.883 105.74 180.562C105.951 180.258 106.225 180.012 106.561 179.824C106.9 179.637 107.301 179.543 107.762 179.543C109.152 179.543 109.859 180.279 109.883 181.752V186H108.799V181.816C108.799 181.363 108.695 181.025 108.488 180.803C108.281 180.576 107.934 180.463 107.445 180.463C107.043 180.463 106.709 180.584 106.443 180.826C106.178 181.064 106.023 181.387 105.98 181.793V186H104.891V181.846C104.891 180.924 104.439 180.463 103.537 180.463C102.826 180.463 102.34 180.766 102.078 181.371V186H100.994V179.66H102.02ZM116.891 182.9C116.891 183.869 116.668 184.648 116.223 185.238C115.777 185.824 115.18 186.117 114.43 186.117C113.629 186.117 113.01 185.834 112.572 185.268L112.52 186H111.523V177H112.607V180.357C113.045 179.814 113.648 179.543 114.418 179.543C115.188 179.543 115.791 179.834 116.229 180.416C116.67 180.998 116.891 181.795 116.891 182.807V182.9ZM115.807 182.777C115.807 182.039 115.664 181.469 115.379 181.066C115.094 180.664 114.684 180.463 114.148 180.463C113.434 180.463 112.92 180.795 112.607 181.459V184.201C112.939 184.865 113.457 185.197 114.16 185.197C114.68 185.197 115.084 184.996 115.373 184.594C115.662 184.191 115.807 183.586 115.807 182.777ZM119.439 186H118.355V177H119.439V186ZM123.811 186.117C122.951 186.117 122.252 185.836 121.713 185.273C121.174 184.707 120.904 183.951 120.904 183.006V182.807C120.904 182.178 121.023 181.617 121.262 181.125C121.504 180.629 121.84 180.242 122.27 179.965C122.703 179.684 123.172 179.543 123.676 179.543C124.5 179.543 125.141 179.814 125.598 180.357C126.055 180.9 126.283 181.678 126.283 182.689V183.141H121.988C122.004 183.766 122.186 184.271 122.533 184.658C122.885 185.041 123.33 185.232 123.869 185.232C124.252 185.232 124.576 185.154 124.842 184.998C125.107 184.842 125.34 184.635 125.539 184.377L126.201 184.893C125.67 185.709 124.873 186.117 123.811 186.117ZM123.676 180.434C123.238 180.434 122.871 180.594 122.574 180.914C122.277 181.23 122.094 181.676 122.023 182.25H125.199V182.168C125.168 181.617 125.02 181.191 124.754 180.891C124.488 180.586 124.129 180.434 123.676 180.434ZM130.607 180.633C130.443 180.605 130.266 180.592 130.074 180.592C129.363 180.592 128.881 180.895 128.627 181.5V186H127.543V179.66H128.598L128.615 180.393C128.971 179.826 129.475 179.543 130.127 179.543C130.338 179.543 130.498 179.57 130.607 179.625V180.633ZM135.289 186C135.227 185.875 135.176 185.652 135.137 185.332C134.633 185.855 134.031 186.117 133.332 186.117C132.707 186.117 132.193 185.941 131.791 185.59C131.393 185.234 131.193 184.785 131.193 184.242C131.193 183.582 131.443 183.07 131.943 182.707C132.447 182.34 133.154 182.156 134.064 182.156H135.119V181.658C135.119 181.279 135.006 180.979 134.779 180.756C134.553 180.529 134.219 180.416 133.777 180.416C133.391 180.416 133.066 180.514 132.805 180.709C132.543 180.904 132.412 181.141 132.412 181.418H131.322C131.322 181.102 131.434 180.797 131.656 180.504C131.883 180.207 132.188 179.973 132.57 179.801C132.957 179.629 133.381 179.543 133.842 179.543C134.572 179.543 135.145 179.727 135.559 180.094C135.973 180.457 136.188 180.959 136.203 181.6V184.518C136.203 185.1 136.277 185.562 136.426 185.906V186H135.289ZM133.49 185.174C133.83 185.174 134.152 185.086 134.457 184.91C134.762 184.734 134.982 184.506 135.119 184.225V182.924H134.27C132.941 182.924 132.277 183.312 132.277 184.09C132.277 184.43 132.391 184.695 132.617 184.887C132.844 185.078 133.135 185.174 133.49 185.174ZM139.08 186H137.996V179.66H139.08V186ZM137.908 177.979C137.908 177.803 137.961 177.654 138.066 177.533C138.176 177.412 138.336 177.352 138.547 177.352C138.758 177.352 138.918 177.412 139.027 177.533C139.137 177.654 139.191 177.803 139.191 177.979C139.191 178.154 139.137 178.301 139.027 178.418C138.918 178.535 138.758 178.594 138.547 178.594C138.336 178.594 138.176 178.535 138.066 178.418C137.961 178.301 137.908 178.154 137.908 177.979ZM142.291 178.125V179.66H143.475V180.498H142.291V184.43C142.291 184.684 142.344 184.875 142.449 185.004C142.555 185.129 142.734 185.191 142.988 185.191C143.113 185.191 143.285 185.168 143.504 185.121V186C143.219 186.078 142.941 186.117 142.672 186.117C142.188 186.117 141.822 185.971 141.576 185.678C141.33 185.385 141.207 184.969 141.207 184.43V180.498H140.053V179.66H141.207V178.125H142.291ZM147.459 182.777C147.459 181.781 147.688 180.994 148.145 180.416C148.602 179.834 149.215 179.543 149.984 179.543C150.734 179.543 151.326 179.795 151.76 180.299L151.807 179.66H152.803V188.438H151.719V185.414C151.281 185.883 150.699 186.117 149.973 186.117C149.207 186.117 148.596 185.82 148.139 185.227C147.686 184.629 147.459 183.838 147.459 182.854V182.777ZM148.543 182.9C148.543 183.627 148.695 184.197 149 184.611C149.309 185.025 149.723 185.232 150.242 185.232C150.887 185.232 151.379 184.947 151.719 184.377V181.271C151.375 180.713 150.887 180.434 150.254 180.434C149.73 180.434 149.314 180.643 149.006 181.061C148.697 181.475 148.543 182.088 148.543 182.9ZM158.457 185.373C158.035 185.869 157.416 186.117 156.6 186.117C155.924 186.117 155.408 185.922 155.053 185.531C154.701 185.137 154.523 184.555 154.52 183.785V179.66H155.604V183.756C155.604 184.717 155.994 185.197 156.775 185.197C157.604 185.197 158.154 184.889 158.428 184.271V179.66H159.512V186H158.48L158.457 185.373ZM163.795 186.117C162.936 186.117 162.236 185.836 161.697 185.273C161.158 184.707 160.889 183.951 160.889 183.006V182.807C160.889 182.178 161.008 181.617 161.246 181.125C161.488 180.629 161.824 180.242 162.254 179.965C162.688 179.684 163.156 179.543 163.66 179.543C164.484 179.543 165.125 179.814 165.582 180.357C166.039 180.9 166.268 181.678 166.268 182.689V183.141H161.973C161.988 183.766 162.17 184.271 162.518 184.658C162.869 185.041 163.314 185.232 163.854 185.232C164.236 185.232 164.561 185.154 164.826 184.998C165.092 184.842 165.324 184.635 165.523 184.377L166.186 184.893C165.654 185.709 164.857 186.117 163.795 186.117ZM163.66 180.434C163.223 180.434 162.855 180.594 162.559 180.914C162.262 181.23 162.078 181.676 162.008 182.25H165.184V182.168C165.152 181.617 165.004 181.191 164.738 180.891C164.473 180.586 164.113 180.434 163.66 180.434ZM172.596 184.529L174.166 179.66H175.273L173 186H172.174L169.877 179.66H170.984L172.596 184.529ZM175.936 182.771C175.936 182.15 176.057 181.592 176.299 181.096C176.545 180.6 176.885 180.217 177.318 179.947C177.756 179.678 178.254 179.543 178.812 179.543C179.676 179.543 180.373 179.842 180.904 180.439C181.439 181.037 181.707 181.832 181.707 182.824V182.9C181.707 183.518 181.588 184.072 181.35 184.564C181.115 185.053 180.777 185.434 180.336 185.707C179.898 185.98 179.395 186.117 178.824 186.117C177.965 186.117 177.268 185.818 176.732 185.221C176.201 184.623 175.936 183.832 175.936 182.848V182.771ZM177.025 182.9C177.025 183.604 177.188 184.168 177.512 184.594C177.84 185.02 178.277 185.232 178.824 185.232C179.375 185.232 179.812 185.018 180.137 184.588C180.461 184.154 180.623 183.549 180.623 182.771C180.623 182.076 180.457 181.514 180.125 181.084C179.797 180.65 179.359 180.434 178.812 180.434C178.277 180.434 177.846 180.646 177.518 181.072C177.189 181.498 177.025 182.107 177.025 182.9ZM186.98 185.373C186.559 185.869 185.939 186.117 185.123 186.117C184.447 186.117 183.932 185.922 183.576 185.531C183.225 185.137 183.047 184.555 183.043 183.785V179.66H184.127V183.756C184.127 184.717 184.518 185.197 185.299 185.197C186.127 185.197 186.678 184.889 186.951 184.271V179.66H188.035V186H187.004L186.98 185.373ZM193.379 184.318C193.379 184.025 193.268 183.799 193.045 183.639C192.826 183.475 192.441 183.334 191.891 183.217C191.344 183.1 190.908 182.959 190.584 182.795C190.264 182.631 190.025 182.436 189.869 182.209C189.717 181.982 189.641 181.713 189.641 181.4C189.641 180.881 189.859 180.441 190.297 180.082C190.738 179.723 191.301 179.543 191.984 179.543C192.703 179.543 193.285 179.729 193.73 180.1C194.18 180.471 194.404 180.945 194.404 181.523H193.314C193.314 181.227 193.188 180.971 192.934 180.756C192.684 180.541 192.367 180.434 191.984 180.434C191.59 180.434 191.281 180.52 191.059 180.691C190.836 180.863 190.725 181.088 190.725 181.365C190.725 181.627 190.828 181.824 191.035 181.957C191.242 182.09 191.615 182.217 192.154 182.338C192.697 182.459 193.137 182.604 193.473 182.771C193.809 182.939 194.057 183.143 194.217 183.381C194.381 183.615 194.463 183.902 194.463 184.242C194.463 184.809 194.236 185.264 193.783 185.607C193.33 185.947 192.742 186.117 192.02 186.117C191.512 186.117 191.062 186.027 190.672 185.848C190.281 185.668 189.975 185.418 189.752 185.098C189.533 184.773 189.424 184.424 189.424 184.049H190.508C190.527 184.412 190.672 184.701 190.941 184.916C191.215 185.127 191.574 185.232 192.02 185.232C192.43 185.232 192.758 185.15 193.004 184.986C193.254 184.818 193.379 184.596 193.379 184.318ZM200.943 184.529L202.514 179.66H203.621L201.348 186H200.521L198.225 179.66H199.332L200.943 184.529ZM204.283 182.771C204.283 182.15 204.404 181.592 204.646 181.096C204.893 180.6 205.232 180.217 205.666 179.947C206.104 179.678 206.602 179.543 207.16 179.543C208.023 179.543 208.721 179.842 209.252 180.439C209.787 181.037 210.055 181.832 210.055 182.824V182.9C210.055 183.518 209.936 184.072 209.697 184.564C209.463 185.053 209.125 185.434 208.684 185.707C208.246 185.98 207.742 186.117 207.172 186.117C206.312 186.117 205.615 185.818 205.08 185.221C204.549 184.623 204.283 183.832 204.283 182.848V182.771ZM205.373 182.9C205.373 183.604 205.535 184.168 205.859 184.594C206.188 185.02 206.625 185.232 207.172 185.232C207.723 185.232 208.16 185.018 208.484 184.588C208.809 184.154 208.971 183.549 208.971 182.771C208.971 182.076 208.805 181.514 208.473 181.084C208.145 180.65 207.707 180.434 207.16 180.434C206.625 180.434 206.193 180.646 205.865 181.072C205.537 181.498 205.373 182.107 205.373 182.9ZM215.328 185.373C214.906 185.869 214.287 186.117 213.471 186.117C212.795 186.117 212.279 185.922 211.924 185.531C211.572 185.137 211.395 184.555 211.391 183.785V179.66H212.475V183.756C212.475 184.717 212.865 185.197 213.646 185.197C214.475 185.197 215.025 184.889 215.299 184.271V179.66H216.383V186H215.352L215.328 185.373ZM221.727 184.318C221.727 184.025 221.615 183.799 221.393 183.639C221.174 183.475 220.789 183.334 220.238 183.217C219.691 183.1 219.256 182.959 218.932 182.795C218.611 182.631 218.373 182.436 218.217 182.209C218.064 181.982 217.988 181.713 217.988 181.4C217.988 180.881 218.207 180.441 218.645 180.082C219.086 179.723 219.648 179.543 220.332 179.543C221.051 179.543 221.633 179.729 222.078 180.1C222.527 180.471 222.752 180.945 222.752 181.523H221.662C221.662 181.227 221.535 180.971 221.281 180.756C221.031 180.541 220.715 180.434 220.332 180.434C219.938 180.434 219.629 180.52 219.406 180.691C219.184 180.863 219.072 181.088 219.072 181.365C219.072 181.627 219.176 181.824 219.383 181.957C219.59 182.09 219.963 182.217 220.502 182.338C221.045 182.459 221.484 182.604 221.82 182.771C222.156 182.939 222.404 183.143 222.564 183.381C222.729 183.615 222.811 183.902 222.811 184.242C222.811 184.809 222.584 185.264 222.131 185.607C221.678 185.947 221.09 186.117 220.367 186.117C219.859 186.117 219.41 186.027 219.02 185.848C218.629 185.668 218.322 185.418 218.1 185.098C217.881 184.773 217.771 184.424 217.771 184.049H218.855C218.875 184.412 219.02 184.701 219.289 184.916C219.562 185.127 219.922 185.232 220.367 185.232C220.777 185.232 221.105 185.15 221.352 184.986C221.602 184.818 221.727 184.596 221.727 184.318ZM98.0234 203.318C98.0234 203.025 97.9121 202.799 97.6895 202.639C97.4707 202.475 97.0859 202.334 96.5352 202.217C95.9883 202.1 95.5527 201.959 95.2285 201.795C94.9082 201.631 94.6699 201.436 94.5137 201.209C94.3613 200.982 94.2852 200.713 94.2852 200.4C94.2852 199.881 94.5039 199.441 94.9414 199.082C95.3828 198.723 95.9453 198.543 96.6289 198.543C97.3477 198.543 97.9297 198.729 98.375 199.1C98.8242 199.471 99.0488 199.945 99.0488 200.523H97.959C97.959 200.227 97.832 199.971 97.5781 199.756C97.3281 199.541 97.0117 199.434 96.6289 199.434C96.2344 199.434 95.9258 199.52 95.7031 199.691C95.4805 199.863 95.3691 200.088 95.3691 200.365C95.3691 200.627 95.4727 200.824 95.6797 200.957C95.8867 201.09 96.2598 201.217 96.7988 201.338C97.3418 201.459 97.7812 201.604 98.1172 201.771C98.4531 201.939 98.7012 202.143 98.8613 202.381C99.0254 202.615 99.1074 202.902 99.1074 203.242C99.1074 203.809 98.8809 204.264 98.4277 204.607C97.9746 204.947 97.3867 205.117 96.6641 205.117C96.1562 205.117 95.707 205.027 95.3164 204.848C94.9258 204.668 94.6191 204.418 94.3965 204.098C94.1777 203.773 94.0684 203.424 94.0684 203.049H95.1523C95.1719 203.412 95.3164 203.701 95.5859 203.916C95.8594 204.127 96.2188 204.232 96.6641 204.232C97.0742 204.232 97.4023 204.15 97.6484 203.986C97.8984 203.818 98.0234 203.596 98.0234 203.318ZM100.232 201.771C100.232 201.15 100.354 200.592 100.596 200.096C100.842 199.6 101.182 199.217 101.615 198.947C102.053 198.678 102.551 198.543 103.109 198.543C103.973 198.543 104.67 198.842 105.201 199.439C105.736 200.037 106.004 200.832 106.004 201.824V201.9C106.004 202.518 105.885 203.072 105.646 203.564C105.412 204.053 105.074 204.434 104.633 204.707C104.195 204.98 103.691 205.117 103.121 205.117C102.262 205.117 101.564 204.818 101.029 204.221C100.498 203.623 100.232 202.832 100.232 201.848V201.771ZM101.322 201.9C101.322 202.604 101.484 203.168 101.809 203.594C102.137 204.02 102.574 204.232 103.121 204.232C103.672 204.232 104.109 204.018 104.434 203.588C104.758 203.154 104.92 202.549 104.92 201.771C104.92 201.076 104.754 200.514 104.422 200.084C104.094 199.65 103.656 199.434 103.109 199.434C102.574 199.434 102.143 199.646 101.814 200.072C101.486 200.498 101.322 201.107 101.322 201.9ZM111.277 204.373C110.855 204.869 110.236 205.117 109.42 205.117C108.744 205.117 108.229 204.922 107.873 204.531C107.521 204.137 107.344 203.555 107.34 202.785V198.66H108.424V202.756C108.424 203.717 108.814 204.197 109.596 204.197C110.424 204.197 110.975 203.889 111.248 203.271V198.66H112.332V205H111.301L111.277 204.373ZM116.059 203.412L117.535 198.66H118.695L116.146 205.979C115.752 207.033 115.125 207.561 114.266 207.561L114.061 207.543L113.656 207.467V206.588L113.949 206.611C114.316 206.611 114.602 206.537 114.805 206.389C115.012 206.24 115.182 205.969 115.314 205.574L115.555 204.93L113.293 198.66H114.477L116.059 203.412ZM122.217 205.117C121.357 205.117 120.658 204.836 120.119 204.273C119.58 203.707 119.311 202.951 119.311 202.006V201.807C119.311 201.178 119.43 200.617 119.668 200.125C119.91 199.629 120.246 199.242 120.676 198.965C121.109 198.684 121.578 198.543 122.082 198.543C122.906 198.543 123.547 198.814 124.004 199.357C124.461 199.9 124.689 200.678 124.689 201.689V202.141H120.395C120.41 202.766 120.592 203.271 120.939 203.658C121.291 204.041 121.736 204.232 122.275 204.232C122.658 204.232 122.982 204.154 123.248 203.998C123.514 203.842 123.746 203.635 123.945 203.377L124.607 203.893C124.076 204.709 123.279 205.117 122.217 205.117ZM122.082 199.434C121.645 199.434 121.277 199.594 120.98 199.914C120.684 200.23 120.5 200.676 120.43 201.25H123.605V201.168C123.574 200.617 123.426 200.191 123.16 199.891C122.895 199.586 122.535 199.434 122.082 199.434ZM126.969 204.115H130.678V205H125.645V204.203L129.143 199.557H125.697V198.66H130.502V199.428L126.969 204.115ZM140.234 201.9C140.234 202.865 140.014 203.643 139.572 204.232C139.131 204.822 138.533 205.117 137.779 205.117C137.01 205.117 136.404 204.873 135.963 204.385V207.438H134.879V198.66H135.869L135.922 199.363C136.363 198.816 136.977 198.543 137.762 198.543C138.523 198.543 139.125 198.83 139.566 199.404C140.012 199.979 140.234 200.777 140.234 201.801V201.9ZM139.15 201.777C139.15 201.062 138.998 200.498 138.693 200.084C138.389 199.67 137.971 199.463 137.439 199.463C136.783 199.463 136.291 199.754 135.963 200.336V203.365C136.287 203.943 136.783 204.232 137.451 204.232C137.971 204.232 138.383 204.027 138.688 203.617C138.996 203.203 139.15 202.59 139.15 201.777ZM144.248 205.117C143.389 205.117 142.689 204.836 142.15 204.273C141.611 203.707 141.342 202.951 141.342 202.006V201.807C141.342 201.178 141.461 200.617 141.699 200.125C141.941 199.629 142.277 199.242 142.707 198.965C143.141 198.684 143.609 198.543 144.113 198.543C144.938 198.543 145.578 198.814 146.035 199.357C146.492 199.9 146.721 200.678 146.721 201.689V202.141H142.426C142.441 202.766 142.623 203.271 142.971 203.658C143.322 204.041 143.768 204.232 144.307 204.232C144.689 204.232 145.014 204.154 145.279 203.998C145.545 203.842 145.777 203.635 145.977 203.377L146.639 203.893C146.107 204.709 145.311 205.117 144.248 205.117ZM144.113 199.434C143.676 199.434 143.309 199.594 143.012 199.914C142.715 200.23 142.531 200.676 142.461 201.25H145.637V201.168C145.605 200.617 145.457 200.191 145.191 199.891C144.926 199.586 144.566 199.434 144.113 199.434ZM151.045 199.633C150.881 199.605 150.703 199.592 150.512 199.592C149.801 199.592 149.318 199.895 149.064 200.5V205H147.98V198.66H149.035L149.053 199.393C149.408 198.826 149.912 198.543 150.564 198.543C150.775 198.543 150.936 198.57 151.045 198.625V199.633ZM151.666 201.777C151.666 200.805 151.896 200.023 152.357 199.434C152.818 198.84 153.422 198.543 154.168 198.543C154.91 198.543 155.498 198.797 155.932 199.305V196H157.016V205H156.02L155.967 204.32C155.533 204.852 154.93 205.117 154.156 205.117C153.422 205.117 152.822 204.816 152.357 204.215C151.896 203.613 151.666 202.828 151.666 201.859V201.777ZM152.75 201.9C152.75 202.619 152.898 203.182 153.195 203.588C153.492 203.994 153.902 204.197 154.426 204.197C155.113 204.197 155.615 203.889 155.932 203.271V200.359C155.607 199.762 155.109 199.463 154.438 199.463C153.906 199.463 153.492 199.668 153.195 200.078C152.898 200.488 152.75 201.096 152.75 201.9ZM162.617 204.373C162.195 204.869 161.576 205.117 160.76 205.117C160.084 205.117 159.568 204.922 159.213 204.531C158.861 204.137 158.684 203.555 158.68 202.785V198.66H159.764V202.756C159.764 203.717 160.154 204.197 160.936 204.197C161.764 204.197 162.314 203.889 162.588 203.271V198.66H163.672V205H162.641L162.617 204.373ZM168.266 204.432C168.266 204.244 168.32 204.088 168.43 203.963C168.543 203.838 168.711 203.775 168.934 203.775C169.156 203.775 169.324 203.838 169.438 203.963C169.555 204.088 169.613 204.244 169.613 204.432C169.613 204.611 169.555 204.762 169.438 204.883C169.324 205.004 169.156 205.064 168.934 205.064C168.711 205.064 168.543 205.004 168.43 204.883C168.32 204.762 168.266 204.611 168.266 204.432ZM168.271 199.258C168.271 199.07 168.326 198.914 168.436 198.789C168.549 198.664 168.717 198.602 168.939 198.602C169.162 198.602 169.33 198.664 169.443 198.789C169.561 198.914 169.619 199.07 169.619 199.258C169.619 199.438 169.561 199.588 169.443 199.709C169.33 199.83 169.162 199.891 168.939 199.891C168.717 199.891 168.549 199.83 168.436 199.709C168.326 199.588 168.271 199.438 168.271 199.258ZM171.166 201.537C171.166 200.654 171.283 199.807 171.518 198.994C171.756 198.182 172.109 197.443 172.578 196.779C173.047 196.115 173.533 195.646 174.037 195.373L174.26 196.088C173.689 196.525 173.221 197.193 172.854 198.092C172.49 198.99 172.291 199.996 172.256 201.109L172.25 201.607C172.25 203.115 172.525 204.424 173.076 205.533C173.408 206.197 173.803 206.717 174.26 207.092L174.037 207.754C173.518 207.465 173.021 206.98 172.549 206.301C171.627 204.973 171.166 203.385 171.166 201.537Z" fill="#2B2B2B"/>
<path d="M108.688 92.875H113.844V100.156H108.688V110H99.6562V100.156H81L80.5938 94.4688L99.5625 64.5H108.688V92.875ZM89.5938 92.875H99.6562V76.8125L99.0625 77.8438L89.5938 92.875ZM149.344 91.1875C149.344 97.4792 148.042 102.292 145.438 105.625C142.833 108.958 139.021 110.625 134 110.625C129.042 110.625 125.25 108.99 122.625 105.719C120 102.448 118.656 97.7604 118.594 91.6562V83.2812C118.594 76.9271 119.906 72.1042 122.531 68.8125C125.177 65.5208 128.979 63.875 133.938 63.875C138.896 63.875 142.688 65.5104 145.312 68.7812C147.938 72.0312 149.281 76.7083 149.344 82.8125V91.1875ZM140.312 82C140.312 78.2292 139.792 75.4896 138.75 73.7812C137.729 72.0521 136.125 71.1875 133.938 71.1875C131.812 71.1875 130.24 72.0104 129.219 73.6562C128.219 75.2812 127.688 77.8333 127.625 81.3125V92.375C127.625 96.0833 128.125 98.8438 129.125 100.656C130.146 102.448 131.771 103.344 134 103.344C136.208 103.344 137.802 102.479 138.781 100.75C139.76 99.0208 140.271 96.375 140.312 92.8125V82ZM182.188 92.875H187.344V100.156H182.188V110H173.156V100.156H154.5L154.094 94.4688L173.062 64.5H182.188V92.875ZM163.094 92.875H173.156V76.8125L172.562 77.8438L163.094 92.875Z" fill="black"/>
<path d="M108.688 92.875H113.844V100.156H108.688V110H99.6562V100.156H81L80.5938 94.4688L99.5625 64.5H108.688V92.875ZM89.5938 92.875H99.6562V76.8125L99.0625 77.8438L89.5938 92.875ZM149.344 91.1875C149.344 97.4792 148.042 102.292 145.438 105.625C142.833 108.958 139.021 110.625 134 110.625C129.042 110.625 125.25 108.99 122.625 105.719C120 102.448 118.656 97.7604 118.594 91.6562V83.2812C118.594 76.9271 119.906 72.1042 122.531 68.8125C125.177 65.5208 128.979 63.875 133.938 63.875C138.896 63.875 142.688 65.5104 145.312 68.7812C147.938 72.0312 149.281 76.7083 149.344 82.8125V91.1875ZM140.312 82C140.312 78.2292 139.792 75.4896 138.75 73.7812C137.729 72.0521 136.125 71.1875 133.938 71.1875C131.812 71.1875 130.24 72.0104 129.219 73.6562C128.219 75.2812 127.688 77.8333 127.625 81.3125V92.375C127.625 96.0833 128.125 98.8438 129.125 100.656C130.146 102.448 131.771 103.344 134 103.344C136.208 103.344 137.802 102.479 138.781 100.75C139.76 99.0208 140.271 96.375 140.312 92.8125V82ZM182.188 92.875H187.344V100.156H182.188V110H173.156V100.156H154.5L154.094 94.4688L173.062 64.5H182.188V92.875ZM163.094 92.875H173.156V76.8125L172.562 77.8438L163.094 92.875Z" fill="url(#paint0_linear)"/>
<defs>
<linearGradient id="paint0_linear" x1="134" y1="0" x2="134" y2="208" gradientUnits="userSpaceOnUse">
<stop stop-color="#18FFC8"/>
<stop offset="1" stop-color="#00DE66"/>
</linearGradient>
</defs>
</svg>
