<svg width="1709" height="1088" viewBox="0 0 1709 1088" fill="none" xmlns="http://www.w3.org/2000/svg">
<path d="M1709 167.538H1583.61C1575.33 167.538 1568.61 174.253 1568.61 182.538V270.024M1397.65 0V255.024C1397.65 263.308 1404.36 270.024 1412.65 270.024H1568.61M1568.61 270.024V431.767C1568.61 440.051 1561.9 446.767 1553.61 446.767H1412.06C1403.76 446.767 1397.04 453.502 1397.06 461.798L1397.62 728.148C1397.63 736.445 1390.91 743.18 1382.62 743.18H1274.73M139.765 0.613691V290.276M139.765 290.276V412.129C139.765 420.413 146.481 427.129 154.765 427.129H300.087C311.132 427.129 320.087 436.083 320.087 447.129V671.991M139.765 290.276H59.3005C51.0162 290.276 44.3005 283.56 44.3005 275.276V207.085C44.3005 198.801 37.5847 192.085 29.3005 192.085H0M0 579.324H47.6877C81.1964 579.324 112.245 596.915 129.47 625.658V625.658C146.694 654.401 177.743 671.991 211.252 671.991H320.087M320.087 671.991V728.18C320.087 736.464 326.802 743.18 335.087 743.18H595.873M0 827.869H427.138C445.277 827.869 463.075 822.935 478.625 813.596L595.873 743.18M595.873 743.18H856.06M1709 827.869H1388.98C1357.87 827.869 1328.53 813.387 1309.6 788.69L1274.73 743.18M1274.73 743.18H856.06M856.06 743.18V1087.5" stroke="#8B8B8B"/>
</svg>
