<svg id="Layer_1" height="512" viewBox="0 0 512 512" width="512" xmlns="http://www.w3.org/2000/svg" data-name="Layer 1"><path d="m56 94.18a40.156 40.156 0 0 1 40-40.18h-40a40.156 40.156 0 0 0 -40 40.18v323.64a40.156 40.156 0 0 0 40 40.18h40a40.156 40.156 0 0 1 -40-40.18z" fill="#d4e1f4"/><path d="m502 94a46 46 0 0 0 -46-46h-400a46 46 0 0 0 -46 46v324a46 46 0 0 0 46 46h400a46 46 0 0 0 46-46zm-12 20h-382a6 6 0 0 0 0 12h382v291.818a34.194 34.194 0 0 1 -34 34.182h-400a34.194 34.194 0 0 1 -34-34.182v-291.818h44a6 6 0 0 0 0-12h-44v-19.818a34.194 34.194 0 0 1 34-34.182h400a34.194 34.194 0 0 1 34 34.182z" fill="#0635c9"/><path d="m57.435 81.651a8.511 8.511 0 1 0 8.509 8.51 8.52 8.52 0 0 0 -8.509-8.51z" fill="#0635c9"/><path d="m89.091 81.651a8.511 8.511 0 1 0 8.511 8.51 8.52 8.52 0 0 0 -8.511-8.51z" fill="#0635c9"/><path d="m121.748 81.651a8.511 8.511 0 1 0 8.51 8.51 8.521 8.521 0 0 0 -8.51-8.51z" fill="#0635c9"/><path d="m41 163.317a6 6 0 0 0 -6 6v84.572a6 6 0 0 0 12 0v-84.572a6 6 0 0 0 -6-6z" fill="#0635c9"/><path d="m41 140.053a6 6 0 0 0 -6 6v4.614a6 6 0 0 0 12 0v-4.614a6 6 0 0 0 -6-6z" fill="#0635c9"/><g fill="#1ae5be"><path d="m108.242 228.036a6 6 0 0 0 -8.484 0l-44.721 44.721a6 6 0 0 0 0 8.486l44.721 44.721a6 6 0 0 0 8.484-8.485l-40.477-40.479 40.477-40.479a6 6 0 0 0 0-8.485z"/><path d="m179.755 228.036a6 6 0 0 0 -8.484 8.485l40.477 40.479-40.477 40.479a6 6 0 1 0 8.484 8.485l44.721-44.721a6 6 0 0 0 0-8.486z"/><path d="m158.663 198.736a6 6 0 0 0 -7.241 4.423l-34.995 144.864a6 6 0 1 0 11.664 2.818l35-144.864a6 6 0 0 0 -4.428-7.241z"/><path d="m258.805 211h-3a6 6 0 0 0 0 12h3a6 6 0 0 0 0-12z"/><path d="m299.035 211h-10.318a6 6 0 0 0 0 12h10.318a6 6 0 1 0 0-12z"/><path d="m452.721 211h-123.289a6 6 0 0 0 0 12h123.289a6 6 0 0 0 0-12z"/><path d="m258.805 251h-3a6 6 0 0 0 0 12h3a6 6 0 1 0 0-12z"/><path d="m299.035 251h-10.318a6 6 0 0 0 0 12h10.318a6 6 0 1 0 0-12z"/><path d="m452.721 251h-123.289a6 6 0 0 0 0 12h123.289a6 6 0 0 0 0-12z"/><path d="m258.805 291h-3a6 6 0 0 0 0 12h3a6 6 0 1 0 0-12z"/><path d="m299.035 291h-10.318a6 6 0 0 0 0 12h10.318a6 6 0 1 0 0-12z"/><path d="m452.721 291h-123.289a6 6 0 0 0 0 12h123.289a6 6 0 0 0 0-12z"/><path d="m258.805 331h-3a6 6 0 0 0 0 12h3a6 6 0 1 0 0-12z"/><path d="m299.035 331h-10.318a6 6 0 0 0 0 12h10.318a6 6 0 1 0 0-12z"/><path d="m452.721 331h-123.289a6 6 0 0 0 0 12h123.289a6 6 0 0 0 0-12z"/></g></svg>