<svg id="Layer_1" height="512" viewBox="0 0 512 512" width="512" xmlns="http://www.w3.org/2000/svg" data-name="Layer 1"><path d="m42 76v254h30v-254-23h-30z" fill="#d4e1f4"/><g fill="#0635c9"><path d="m109.154 263a6 6 0 0 0 6 6h140.846a6 6 0 1 0 0-12h-140.846a6 6 0 0 0 -6 6z"/><path d="m396.844 278h-281.69a6 6 0 0 0 0 12h281.69a6 6 0 1 0 0-12z"/><path d="m396.844 298h-281.69a6 6 0 0 0 0 12h281.69a6 6 0 1 0 0-12z"/><path d="m238.439 168.22a24.457 24.457 0 1 0 -24.456-24.457 24.485 24.485 0 0 0 24.456 24.457zm0-36.913a12.457 12.457 0 1 1 -12.456 12.456 12.471 12.471 0 0 1 12.456-12.456z"/><path d="m351.608 98h-191.232c-3.314 0-6.376 2.187-6.376 5.5v9.5h-15.981a5.925 5.925 0 0 0 -6.019 5.892v98.216a5.925 5.925 0 0 0 6.019 5.892h15.981v9.5a6.776 6.776 0 0 0 6.376 6.5h191.232a6.791 6.791 0 0 0 6.392-6.5v-9.5h16a5.908 5.908 0 0 0 6-5.892v-98.216a5.908 5.908 0 0 0 -6-5.892h-16v-9.5c0-3.313-3.078-5.5-6.392-5.5zm-197.608 113h-10v-86h10zm20.045 16 34.122-36.123 34.121 36.123zm84.75 0-6.78-7.428 41.985-66.503 46.907 73.931zm87.205-15.475-46.758-73.5a6.571 6.571 0 0 0 -5.26-3.02h-.011a6.227 6.227 0 0 0 -5.065 3.038l-45.4 72.158-30.977-32.741a5.974 5.974 0 0 0 -4.362-1.85 6.437 6.437 0 0 0 -4.55 1.895l-37.617 39.639v-107.144h180zm22-86.525v86h-10v-86z"/><path d="m470 47h-428a5.892 5.892 0 0 0 -6 5.871v275.129h12v-246h416v246h12v-275.129a5.892 5.892 0 0 0 -6-5.871zm-6 23h-416v-11h416z"/></g><path d="m65 96.669a6 6 0 0 0 -6 6v4.712a6 6 0 0 0 12 0v-4.712a6 6 0 0 0 -6-6z" fill="#1ae5be"/><path d="m65 123.906a6 6 0 0 0 -6 6v64.179a6 6 0 1 0 12 0v-64.179a6 6 0 0 0 -6-6z" fill="#1ae5be"/><path d="m104.466 153.487a6 6 0 0 0 -8.486 0l-10.27 10.271a6 6 0 0 0 0 8.484l10.27 10.271a6 6 0 0 0 8.486-8.485l-6.028-6.028 6.028-6.028a6 6 0 0 0 0-8.485z" fill="#0635c9"/><path d="m416.02 153.487a6 6 0 0 0 -8.486 8.485l6.028 6.028-6.028 6.028a6 6 0 1 0 8.486 8.485l10.27-10.271a6 6 0 0 0 0-8.484z" fill="#0635c9"/><path d="m479.412 20h-445.744a27.727 27.727 0 0 0 -27.668 27.634v330.3c0 15.211 12.456 28.066 27.668 28.066h154.332v25.984a15.623 15.623 0 0 1 -15.608 15.588 38.454 38.454 0 0 0 -38.392 38.406 6.011 6.011 0 0 0 5.99 6.022h226.676a6.02 6.02 0 0 0 6-6.022 38.306 38.306 0 0 0 -38.23-38.395 15.486 15.486 0 0 1 -15.436-15.599v-25.984h160.412c15.212 0 27.588-12.855 27.588-28.067v-330.299a27.658 27.658 0 0 0 -27.588-27.634zm-144.976 439.6a25.931 25.931 0 0 1 25.541 20.4h-213.3a26.122 26.122 0 0 1 25.714-20.4 27.656 27.656 0 0 0 27.609-27.616v-25.984h107v25.984a27.509 27.509 0 0 0 27.436 27.616zm160.564-81.667c0 8.594-6.993 16.067-15.588 16.067h-445.744c-8.596 0-15.668-7.473-15.668-16.067v-43.933h477zm0-55.933h-477v-274.366a15.713 15.713 0 0 1 15.668-15.634h445.744a15.645 15.645 0 0 1 15.588 15.634z" fill="#1ae5be"/><path d="m253.327 380.536a16.795 16.795 0 1 0 -16.794-16.8 16.814 16.814 0 0 0 16.794 16.8zm0-21.589a4.795 4.795 0 1 1 -4.794 4.794 4.8 4.8 0 0 1 4.794-4.794z" fill="#1ae5be"/></svg>