<svg width="1370" height="1045" viewBox="0 0 1370 1045" fill="none" xmlns="http://www.w3.org/2000/svg">
<path d="M1370 136.5H1272.5C1264.22 136.5 1257.5 143.216 1257.5 151.5V220M1120.5 0V205C1120.5 213.284 1127.22 220 1135.5 220H1257.5M1257.5 220V349C1257.5 357.284 1250.78 364 1242.5 364H1135.03C1126.73 364 1120.01 370.735 1120.03 379.031L1120.47 590.469C1120.49 598.765 1113.77 605.5 1105.47 605.5H1022M112.5 0.5V236.5M112.5 236.5V333C112.5 341.284 119.216 348 127.5 348H237C248.046 348 257 356.954 257 368V547.5M112.5 236.5H51C42.7157 236.5 36 229.784 36 221.5V171.5C36 163.216 29.2843 156.5 21 156.5H0.5M0.5 472H38.1808C65.3337 472 90.4626 486.358 104.25 509.75V509.75C118.037 533.142 143.166 547.5 170.319 547.5H257M257 547.5V590.5C257 598.784 263.716 605.5 272 605.5H478M0.5 674.5H336.883C355.271 674.5 373.303 669.43 388.997 659.847L478 605.5M478 605.5H686.5M1370 674.5H1123.86C1092.46 674.5 1062.89 659.757 1043.99 634.685L1022 605.5M1022 605.5H686.5M686.5 605.5V1044.5" stroke="#8B8B8B"/>
</svg>
