<svg id="Layer_1" height="512" viewBox="0 0 512 512" width="512" xmlns="http://www.w3.org/2000/svg" data-name="Layer 1"><path d="m85.66 339.98h1.958l-4-11.59-.14.14a11.448 11.448 0 0 1 -11.45 11.45h-16.368a44.666 44.666 0 0 0 -44.66 44.66v70.19h30v-70.19a44.666 44.666 0 0 1 44.66-44.66z" fill="#d4e1f4"/><path d="m197.14 340.98a48.909 48.909 0 0 1 32.71-12.48h5.157l-4.4-12.76-.16.16a12.6 12.6 0 0 1 -12.59 12.6h-18.007a49.128 49.128 0 0 0 -49.12 49.13v77.2h30v-77.2a48.994 48.994 0 0 1 16.41-36.65z" fill="#d4e1f4"/><g fill="#0635c9"><path d="m207.891 235.256v28.073a48.109 48.109 0 1 0 96.218 0v-28.073a48.109 48.109 0 1 0 -96.218 0zm84.218 0v28.073a36.109 36.109 0 1 1 -72.218 0v-28.073a36.109 36.109 0 1 1 72.218 0z"/><path d="m405.3 210.936a44.331 44.331 0 0 0 -44.281 44.281v25.52a44.281 44.281 0 1 0 88.562 0v-25.52a44.331 44.331 0 0 0 -44.281-44.281zm32.281 69.8a32.281 32.281 0 1 1 -64.562 0v-25.52a32.281 32.281 0 1 1 64.562 0z"/><path d="m456.339 333.982h-16.133a5.458 5.458 0 0 1 -5.452-5.451 6 6 0 0 0 -11.647-2.026l-6.416 17.876a12.014 12.014 0 0 1 -22.667-.146l-6.135-17.8a6 6 0 0 0 -9.915-2.287l-.145.144a6 6 0 0 0 -1.757 4.242 5.458 5.458 0 0 1 -5.452 5.451h-16.365a51.134 51.134 0 0 0 -7.737.59 54.853 54.853 0 0 0 -34.372-12.075h-17.746a6.6 6.6 0 0 1 -6.6-6.6 6 6 0 0 0 -11.647-2.026l-7.053 19.665a13.816 13.816 0 0 1 -26.066-.167l-6.749-19.585a6 6 0 0 0 -9.92-2.282l-.159.159a6 6 0 0 0 -1.752 4.237 6.6 6.6 0 0 1 -6.6 6.6h-18a54.85 54.85 0 0 0 -34.378 12.079 51.059 51.059 0 0 0 -7.731-.595h-16.133a5.458 5.458 0 0 1 -5.452-5.451 6 6 0 0 0 -11.647-2.026l-6.413 17.873a12.015 12.015 0 0 1 -22.668-.146l-6.135-17.8a6 6 0 0 0 -9.917-2.286l-.144.144a6 6 0 0 0 -1.756 4.241 5.457 5.457 0 0 1 -5.451 5.451h-16.367a50.72 50.72 0 0 0 -50.662 50.659v70.182a6 6 0 0 0 6 6h490a6 6 0 0 0 6-6v-70.182a50.719 50.719 0 0 0 -50.661-50.662zm-311.612 43.644v71.2h-127.727v-64.182a38.706 38.706 0 0 1 38.662-38.662h16.365a17.356 17.356 0 0 0 10.181-3.282l1.877 5.449a24.015 24.015 0 0 0 45.307.288l2.055-5.725a17.363 17.363 0 0 0 9.6 3.265c.109 0 .22.008.331.008h13.374a54.808 54.808 0 0 0 -10.025 31.641zm210.546 71.2h-198.546v-71.2a43.176 43.176 0 0 1 43.127-43.126h18a18.511 18.511 0 0 0 11.5-3.989l2.333 6.773a25.816 25.816 0 0 0 48.706.31l2.535-7.064a18.5 18.5 0 0 0 10.878 3.96c.112.007.225.01.338.01h18a43.176 43.176 0 0 1 43.127 43.128zm139.727 0h-127.727v-71.2a54.808 54.808 0 0 0 -10.027-31.644h13.374a17.357 17.357 0 0 0 10.18-3.282l1.877 5.449a24.015 24.015 0 0 0 45.307.288l2.055-5.725a17.363 17.363 0 0 0 9.6 3.265c.109 0 .22.008.33.008h16.366a38.706 38.706 0 0 1 38.665 38.659z"/><path d="m62.422 255.217v25.52a44.281 44.281 0 1 0 88.562 0v-25.52a44.281 44.281 0 0 0 -88.562 0zm76.562 0v25.52a32.281 32.281 0 1 1 -64.562 0v-25.52a32.281 32.281 0 0 1 64.562 0z"/></g><path d="m309.408 89.829-33.448-4.942-14.89-30.356a6 6 0 0 0 -5.372-3.357h-.015a6 6 0 0 0 -5.374 3.332l-15.036 30.282-33.473 4.781a6 6 0 0 0 -3.35 10.226l24.154 23.659-5.8 33.311a6 6 0 0 0 8.69 6.345l29.965-15.661 29.889 15.806a6 6 0 0 0 8.721-6.3l-5.635-33.338 24.268-23.542a6 6 0 0 0 -3.3-10.242zm-31.588 27.371a6 6 0 0 0 -1.738 5.307l4.135 24.461-21.931-11.6a6 6 0 0 0 -5.584-.013l-21.986 11.49 4.253-24.441a6 6 0 0 0 -1.713-5.314l-17.722-17.36 24.558-3.507a6 6 0 0 0 4.526-3.272l11.033-22.219 10.925 22.268a6 6 0 0 0 4.509 3.293l24.542 3.626z" fill="#1ae5be"/><path d="m456.464 114.669-29.384-4.342-13.08-26.668a6 6 0 0 0 -5.373-3.357h-.014a6 6 0 0 0 -5.374 3.332l-13.21 26.6-29.405 4.2a6 6 0 0 0 -3.351 10.225l21.221 20.785-5.094 29.269a6 6 0 0 0 8.69 6.346l26.326-13.759 26.258 13.886a6 6 0 0 0 8.721-6.3l-4.95-29.288 21.32-20.683a6 6 0 0 0 -3.3-10.242zm-28.639 24.508a6 6 0 0 0 -1.738 5.306l3.45 20.412-18.3-9.677a5.994 5.994 0 0 0 -5.584-.014l-18.346 9.588 3.549-20.4a6 6 0 0 0 -1.713-5.314l-14.788-14.478 20.492-2.927a6 6 0 0 0 4.526-3.272l9.206-18.54 9.117 18.585a6 6 0 0 0 4.509 3.293l20.478 3.026z" fill="#1ae5be"/><path d="m150.587 114.669-29.387-4.342-13.079-26.668a6 6 0 0 0 -5.372-3.357h-.015a6 6 0 0 0 -5.374 3.332l-13.21 26.6-29.405 4.2a6 6 0 0 0 -3.35 10.225l21.22 20.785-5.092 29.265a6 6 0 0 0 8.691 6.346l26.325-13.755 26.261 13.886a6 6 0 0 0 8.722-6.3l-4.951-29.288 21.32-20.683a6 6 0 0 0 -3.3-10.242zm-28.639 24.508a6 6 0 0 0 -1.739 5.306l3.45 20.412-18.3-9.677a5.994 5.994 0 0 0 -5.584-.014l-18.345 9.588 3.548-20.4a6 6 0 0 0 -1.712-5.314l-14.788-14.478 20.492-2.927a6 6 0 0 0 4.53-3.273l9.207-18.54 9.116 18.585a6 6 0 0 0 4.51 3.293l20.478 3.026z" fill="#1ae5be"/></svg>