<svg width="1709" height="1243" viewBox="0 0 1709 1243" fill="none" xmlns="http://www.w3.org/2000/svg">
<path d="M1709 167.538H1583.61C1575.33 167.538 1568.61 174.253 1568.61 182.538V270.024M1397.65 0V255.024C1397.65 263.308 1404.36 270.024 1412.65 270.024H1568.61M1568.61 270.024V431.767C1568.61 440.051 1561.9 446.767 1553.61 446.767H1412.05C1403.75 446.767 1397.03 453.495 1397.05 461.788L1397.63 882.979C1397.64 891.272 1390.92 898 1382.63 898H1274.73M139.765 0.613691V290.276M139.765 290.276V412.129C139.765 420.413 146.481 427.129 154.765 427.129H300.087C311.132 427.129 320.087 436.083 320.087 447.129V671.991M139.765 290.276H59.3005C51.0162 290.276 44.3005 283.56 44.3005 275.276V207.085C44.3005 198.801 37.5847 192.085 29.3005 192.085H0M0 579.324H47.6877C81.1964 579.324 112.245 596.915 129.47 625.658V625.658C146.694 654.401 177.743 671.991 211.252 671.991H320.087M320.087 671.991V883C320.087 891.284 326.802 898 335.087 898H595.873M0 982.689H427.138C445.277 982.689 463.075 977.756 478.625 968.417L595.873 898M595.873 898H856.06M1709 982.689H1388.98C1357.87 982.689 1328.53 968.207 1309.6 943.51L1274.73 898M1274.73 898H856.06M856.06 898V1242.32" stroke="#8B8B8B"/>
</svg>
