<svg width="18" height="14" viewBox="0 0 18 14" fill="none" xmlns="http://www.w3.org/2000/svg">
<path fill-rule="evenodd" clip-rule="evenodd" d="M0 1C0 0.447715 0.447715 0 1 0H17C17.5523 0 18 0.447715 18 1C18 1.55228 17.5523 2 17 2H1C0.447716 2 0 1.55228 0 1ZM6 7C6 6.44772 6.44772 6 7 6H15C15.5523 6 16 6.44772 16 7C16 7.55228 15.5523 8 15 8H7C6.44772 8 6 7.55228 6 7ZM1 12C0.447715 12 0 12.4477 0 13C0 13.5523 0.447716 14 1 14H17C17.5523 14 18 13.5523 18 13C18 12.4477 17.5523 12 17 12H1Z" fill="#FAFAFA"/>
</svg>
