<svg width="1370" height="1028" viewBox="0 0 1370 1028" fill="none" xmlns="http://www.w3.org/2000/svg">
<path d="M1370 134.344H1272.46C1264.17 134.344 1257.46 141.059 1257.46 149.344V216.525M1120.41 0V201.525C1120.41 209.809 1127.12 216.525 1135.41 216.525H1257.46M1257.46 216.525V343.25C1257.46 351.534 1250.74 358.25 1242.46 358.25H1134.94C1126.64 358.25 1119.92 364.985 1119.94 373.281L1120.38 580.903C1120.39 589.2 1113.67 595.935 1105.38 595.935H1021.87M112.041 0.492101V232.764M112.041 232.764V327.503C112.041 335.787 118.757 342.503 127.041 342.503H236.594C247.639 342.503 256.594 351.457 256.594 362.503V538.851M112.041 232.764H50.513C42.2287 232.764 35.513 226.048 35.513 217.764V169.028C35.513 160.743 28.7972 154.028 20.513 154.028H0M0 464.544H38.2191C65.0862 464.544 89.9804 478.65 103.788 501.697V501.697C117.595 524.745 142.49 538.851 169.357 538.851H256.594M256.594 538.851V580.935C256.594 589.219 263.309 595.935 271.594 595.935H477.674M0 663.845H336.905C355.048 663.845 372.849 658.909 388.402 649.566L477.674 595.935M477.674 595.935H686.25M1370 663.845H1123.26C1092.14 663.845 1062.8 649.358 1043.87 624.655L1021.87 595.935M1021.87 595.935H686.25M686.25 595.935V1028" stroke="#8B8B8B"/>
</svg>
