<svg id="Layer_1" height="512" viewBox="0 0 512 512" width="512" xmlns="http://www.w3.org/2000/svg" data-name="Layer 1"><path d="m408.26 19.34-.15-.31a306.813 306.813 0 0 0 -173.36 112.66h-.01a304.131 304.131 0 0 0 -46.93 88.67q-2.685 8.055-4.91 16.29l20 20q2.22-8.235 4.91-16.29a304.131 304.131 0 0 1 46.93-88.67h.01a306.985 306.985 0 0 1 166.55-110.974 130.115 130.115 0 0 1 -13.04-21.376z" fill="#d4e1f4"/><g fill="#0635c9"><path d="m164.662 122.52a29.576 29.576 0 0 1 21.051 8.72 41.943 41.943 0 0 0 52.312 5.481l-6.55-10.054a29.888 29.888 0 0 1 -37.277-3.913 41.771 41.771 0 0 0 -59.042-.03l-59.424 58.559a6 6 0 0 0 0 8.542l34.384 33.96a59.052 59.052 0 0 0 83.049-.258l-8.486-8.485a47.023 47.023 0 0 1 -66.131.205l-30.061-29.686 55.123-54.321a29.58 29.58 0 0 1 21.052-8.72z"/><path d="m361.852 257.043-10.055-6.55a41.945 41.945 0 0 0 5.481 52.313 29.813 29.813 0 0 1 -.03 42.132l-54.291 55.092-29.686-30.057a47.024 47.024 0 0 1 .206-66.132l-8.485-8.485a59.051 59.051 0 0 0 -.258 83.049l33.959 34.595a6.222 6.222 0 0 0 4.269 2 6.217 6.217 0 0 0 4.27-2l58.53-59.5a41.884 41.884 0 0 0 0-59.126 29.963 29.963 0 0 1 -3.91-37.331z"/><path d="m154.21 384.878a41.7 41.7 0 0 1 -9.71 1.122h-9.452a6 6 0 0 0 0 12h9.452a53.678 53.678 0 0 0 12.5-1.452 6 6 0 0 0 -2.795-11.67z"/><path d="m196.726 332.842a53.284 53.284 0 0 0 -6.273-15.739l20.847 20.845a6 6 0 0 0 10.066-2.8l12.8-51.742-11.648-2.881-10.244 41.424-45.329-45.328 42.434-8.994-2.488-11.739-53.252 11.287a6 6 0 0 0 -3 10.112l21.3 21.3a53.242 53.242 0 0 0 -15.5-6.221c-1.738-.393-3.48-.7-5.163-.91a53.414 53.414 0 0 0 -6.349-.425 52.678 52.678 0 0 0 -37.827 15.548 53.923 53.923 0 0 0 -16.112 38.515 6 6 0 0 0 5.848 6l4.525.115a57.377 57.377 0 0 0 -10.251 41.979 5.984 5.984 0 0 0 5.89 4.812h16.392a6 6 0 0 0 0-12h-10.93c-.17-8 1.586-23.158 16.115-35.979a5.991 5.991 0 0 0 -3.817-10.483l-11.36-.286a42.066 42.066 0 0 1 12.157-24.152 40.9 40.9 0 0 1 28.964-12.071h.313c.955.006 1.913.057 2.87.13a27.672 27.672 0 0 0 -13.422 20.526l-3.441 27.8a6 6 0 0 0 5.954 6.737 6.1 6.1 0 0 0 .737-.045l27.8-3.442a27.771 27.771 0 0 0 20.532-13.466c.086 1.081.145 2.171.147 3.269a41.251 41.251 0 0 1 -12.157 29.351 6 6 0 1 0 8.484 8.485 53.447 53.447 0 0 0 15.254-44.474c-.2-1.673-.492-3.374-.866-5.058zm-19.581-1.418a15.809 15.809 0 0 1 -13.292 11.4l-20.158 2.5 2.5-20.153a15.951 15.951 0 0 1 11.78-13.4 15.85 15.85 0 0 1 19.175 19.659z"/><path d="m395.659 260.914a5.974 5.974 0 0 0 3.824-1.379c4.276-3.54 8.516-7.248 12.6-11.02a6 6 0 1 0 -8.137-8.819c-3.931 3.627-8.01 7.192-12.121 10.6a6 6 0 0 0 3.83 10.621z"/><path d="m494.754 102.88a6 6 0 0 0 -7.48 4.007 297.025 297.025 0 0 1 -19.462 48.466c-2.876 5.663-5.979 11.313-9.221 16.792-3.985 6.731-8.29 13.392-12.8 19.8a300.531 300.531 0 0 1 -23.286 29.055 6 6 0 0 0 8.881 8.071 312.778 312.778 0 0 0 24.214-30.222c4.69-6.662 9.169-13.59 13.314-20.593 3.373-5.7 6.6-11.577 9.594-17.469a309.129 309.129 0 0 0 20.249-50.428 6 6 0 0 0 -4.003-7.479z"/><path d="m29.828 235.673a6 6 0 0 0 -8.484 0l-4.6 4.595a6 6 0 1 0 8.484 8.485l4.595-4.595a6 6 0 0 0 .005-8.485z"/><path d="m42.862 231.124 20.531-20.53a6 6 0 1 0 -8.485-8.486l-20.53 20.53a6 6 0 1 0 8.484 8.486z"/><path d="m30.029 272.937a5.984 5.984 0 0 0 4.243-1.757l24.133-24.134a6 6 0 0 0 -8.486-8.485l-24.133 24.133a6 6 0 0 0 4.243 10.243z"/><path d="m65.961 237a5.982 5.982 0 0 0 4.242-1.757l8.922-8.921a6 6 0 1 0 -8.484-8.486l-8.922 8.922a6 6 0 0 0 4.242 10.242z"/><path d="m41.4 278.547-26.66 26.658a6 6 0 0 0 8.485 8.485l26.658-26.658a6 6 0 1 0 -8.485-8.485z"/><path d="m94.856 233.573a6 6 0 0 0 -8.484 0l-31.231 31.227a6 6 0 1 0 8.484 8.486l31.231-31.232a6 6 0 0 0 0-8.481z"/><path d="m221.38 427.226a6 6 0 0 0 -8.485 0l-4.595 4.594a6 6 0 0 0 8.486 8.485l4.594-4.6a6 6 0 0 0 0-8.479z"/><path d="m246.461 393.661-20.53 20.53a6 6 0 1 0 8.484 8.485l20.53-20.53a6 6 0 0 0 -8.484-8.485z"/><path d="m221.581 464.489a5.982 5.982 0 0 0 4.242-1.757l24.134-24.132a6 6 0 1 0 -8.484-8.485l-24.134 24.133a6 6 0 0 0 4.242 10.242z"/><path d="m257.514 428.557a5.986 5.986 0 0 0 4.243-1.757l8.921-8.922a6 6 0 0 0 -8.487-8.485l-8.92 8.921a6 6 0 0 0 4.243 10.243z"/><path d="m232.951 470.1-26.658 26.657a6 6 0 1 0 8.484 8.486l26.659-26.658a6 6 0 1 0 -8.485-8.485z"/><path d="m277.925 425.125-31.232 31.232a6 6 0 1 0 8.485 8.485l31.231-31.231a6 6 0 1 0 -8.484-8.486z"/><path d="m447.828 352.31a33.632 33.632 0 0 1 -21.135-21.2 6 6 0 0 0 -11.386 0 33.632 33.632 0 0 1 -21.135 21.2 6 6 0 0 0 0 11.38 33.632 33.632 0 0 1 21.135 21.2 6 6 0 0 0 11.386 0 33.632 33.632 0 0 1 21.135-21.2 6 6 0 0 0 0-11.38zm-26.828 17.381a45.932 45.932 0 0 0 -11.668-11.691 45.932 45.932 0 0 0 11.668-11.691 45.932 45.932 0 0 0 11.668 11.691 45.932 45.932 0 0 0 -11.668 11.691z"/><path d="m22.172 111.31a6 6 0 0 0 0 11.38 33.632 33.632 0 0 1 21.135 21.2 6 6 0 0 0 11.386 0 33.632 33.632 0 0 1 21.135-21.2 6 6 0 0 0 0-11.38 33.632 33.632 0 0 1 -21.135-21.2 6 6 0 0 0 -11.386 0 33.632 33.632 0 0 1 -21.135 21.2zm26.828-6a45.932 45.932 0 0 0 11.668 11.69 45.932 45.932 0 0 0 -11.668 11.691 45.932 45.932 0 0 0 -11.668-11.691 45.932 45.932 0 0 0 11.668-11.691z"/><ellipse cx="127.038" cy="54" rx="10.985" ry="11"/><ellipse cx="402.038" cy="445" rx="10.985" ry="11"/></g><path d="m477.582 5a309.721 309.721 0 0 0 -190.6 65.542c-53.409 41.531-92.426 99.967-109.867 164.543a6 6 0 0 0 1.55 5.807l68.485 68.486a6.006 6.006 0 0 0 5.778 1.558c135.804-35.936 230.654-159.279 230.654-299.936a6 6 0 0 0 -6-6zm-12.155 66.358a124.694 124.694 0 0 1 -48.365-48.158 297.374 297.374 0 0 1 54.459-6.138 298.168 298.168 0 0 1 -6.094 54.296zm-212.25 227.078-63.557-63.557c17.193-60.75 54.28-115.639 104.727-154.864a299.292 299.292 0 0 1 84.816-46.3q12.725-4.463 25.755-7.728a136.694 136.694 0 0 0 57.732 57.506c-25.666 102.418-104.582 185.892-209.473 214.943z" fill="#1ae5be"/><path d="m336.744 107.968a43.86 43.86 0 1 0 31.021 74.891 43.87 43.87 0 0 0 -31.022-74.891zm22.536 66.406a31.871 31.871 0 1 1 0-45.071 31.906 31.906 0 0 1 0 45.071z" fill="#1ae5be"/></svg>