<svg id="Layer_1" enable-background="new 0 0 512 512" height="512" viewBox="0 0 512 512" width="512" xmlns="http://www.w3.org/2000/svg"><path d="m271 24.7c-4.9-.5-9.9-.7-15-.7-83.6 0-151.6 64.9-151.6 145 0 67.6 54.8 129.7 98.5 168.4 29 25.7 53.1 41.1 53.1 41.1s5.8-3.7 15-10.4c-9.7-7.1-23.3-17.5-38.1-30.7-43.7-38.7-98.5-100.7-98.5-168.4 0-75.2 60-137.1 136.6-144.3z" fill="#d4e1f4"/><g fill="#1ae5be"><path d="m506.3 462.7c0-.8-.2-1.6-.6-2.2l-68.4-125.7c-1-1.9-3.1-3.1-5.3-3.1l-122.4-.3v12l29.6.1 11.3 42.3c.7 2.6 3.1 4.4 5.8 4.4l97.3-.1 15 27.7-157.6.1c-3.2-.1-5.9 2.5-6 5.7v.1l-.1 34.5h-89l5.6-56.8c.2-1.7-.4-3.3-1.6-4.5-1.1-1.1-2.6-1.7-4.2-1.7h-.2-156.4l30.5-51.4 112.9-.1v-12h-116.4c-2.1 0-4.1 1.1-5.2 2.9l-74.4 125.7-.7 2.4-.8 25.3c0 3.3 2.7 6 6 6h490c3.3 0 6-2.7 6-6zm-145.3-84.5-9.3-34.8 76.8.2 18.7 34.4zm-43.9 51.3 158.1-.2 15.6 28.7h-173.7zm-265-22.8 156.9-.2-5 51.5h-182.5zm442.9 75.3h-478v-12h478z"/><path d="m97.5 355c-3.3 0-6 2.7-6 6s2.7 6 6 6h5.6c3.3 0 6-2.7 6-6s-2.7-6-6-6z"/><path d="m124.1 355c-3.3 0-6 2.7-6 6s2.7 6 6 6h60.6c3.3 0 6-2.7 6-6s-2.7-6-6-6z"/></g><g fill="#0635c9"><path d=""/><path d="m183.8 220.4c.2-.4-.2.4 0 0z"/><path d="m256 54.5c-64.6 0-117 52.3-117.1 116.9s52.3 117 116.9 117.1 117-52.3 117.1-116.9c0 0 0 0 0-.1 0-64.6-52.3-116.9-116.9-117zm-17.6 220.5c-7.3-1.3-14.5-3.3-21.4-6.1v-14.7c0-3.3-2.7-6-6-6s-6 2.7-6 6v8.9c-4-2.2-8-4.6-12-7.3v-22.8c.1-2.6.8-5.5 1.8-7.9 2.4-5.2 7.1-9.5 12.5-11.3l4-1.4c3.9-1.3 7.8-2.5 11.8-3.5l3.2 24.2c.4 3.3 3.4 5.6 6.7 5.2.6-.1 1.2-.2 1.7-.5l6.6-3 1.2 5zm-5.7-130.5c1.4-1 2.3-2.7 2.5-4.4l.9-11.4c11.8.8 23.3-3.6 31.6-12.1 5.5 5 9.3 11.4 11 18.6l1.8 7.3c.8 3.2 4 5.2 7.3 4.4.4-.1.8-.2 1.1-.4l5.2-2.4c-.2 1.3-1.3 2.4-2.6 2.6-2.9.5-5 3-5 6 0 16.8-13.7 30.5-30.5 30.5s-30.5-13.7-30.5-30.5c0-2.9-2.1-5.4-5-5.9-1.5-.3-2.7-1.6-2.7-3.1.2.1.5.2.8.2 9.9 2.3 11.8 2.4 14.1.6zm-.6-45.6c12.4-13.2 33.1-13.9 46.3-1.5l1.5 1.5c6.1 6.5 9.3 15.3 8.6 24.3l-.2 2.8c-3.6-9.2-10-17-18.1-22.5-2.7-1.8-6.3-1.2-8.2 1.5-6 8.4-16 12.9-26.3 11.8l-2.9-.3c-.1 0-.2 0-.2 0-4.1-.3-7.8 2.7-8.1 6.9l-.6 7.1-.5-7.1c-.6-9.2 2.5-18 8.7-24.5zm5.1 124.6-2.1-15.6c1.1 2.3 2.5 4.4 4.3 6.1l6 5.8zm18.8 53c-2 0-3.9-.1-5.8-.2l3.8-30.8 4.8.1 3 30.8c-2 0-3.9.1-5.8.1zm-3.5-46.5 3.8-2.1 4.5 2.1-1 3.5-6.4-.1zm3.5-16.8-8.3-7.9c-1.7-1.6-2.7-3.8-2.7-6.1v-5.6c3.6.9 7.3 1.4 11 1.4s7.4-.5 11-1.4v5.6c0 2.3-1 4.5-2.7 6.1zm16.6.8c1.8-1.7 3.2-3.8 4.3-6l-2 15.5-8.3-3.8zm46.4 41.8c-4 2.6-8 5-11 7.2v-8.8c0-3.3-2.7-6-6-6s-6 2.7-6 6v14.6c-7.1 2.9-14.5 5-22.1 6.2l-3.5-34.7 1.4-4.9 5.4 2.5c1.7.8 3.7.7 5.4-.2s2.8-2.6 3-4.5l3.2-24.2c4 1 7.9 2.1 11.8 3.5l4 1.4c5.4 1.8 10.1 6.1 12.5 11.3 1 2.4 1.8 5.3 1.9 8zm12-10.5v-12.3c-.1-4.1-1.2-8.8-2.7-12.6-3.8-8.2-11.1-15.1-19.6-18l-4-1.4c-8.3-2.9-16.9-5-25.6-6.4v-6.3c11-6.9 18.2-18.5 19.3-31.4 6-3.3 9.1-10.3 7.4-17-.8-3.3-2.9-6.2-5.8-7.9l.6-8c.9-12.3-3.4-24.3-11.8-33.3-16.9-18.1-45.2-19-63.3-2.1-.7.7-1.4 1.4-2.1 2.1-8.4 8.9-12.7 21-11.8 33.3l.6 8c-2.9 1.8-5 4.6-5.8 8-1.6 6.7 1.4 13.6 7.4 17 1.1 12.9 8.3 24.6 19.3 31.5v6.3c-8.7 1.3-17.3 3.5-25.6 6.4l-4 1.4c-8.6 2.9-15.9 9.8-19.6 18-1.5 3.8-2.7 8.4-2.8 12.6v12.3c-18-19-30.2-45.1-30.2-73.8 0-57.9 47.2-105 105.1-105s105.2 47.1 105.2 105c-.1 28.5-12.2 54.6-30.2 73.6z"/><path d="m328.3 220.4c.1.4-.2-.4 0 0z"/></g><path d="m256 18c-86.9 0-157.6 67.7-157.6 151 0 26.7 8.2 54.7 24.5 83.2 12.8 22.5 30.7 45.4 53.1 68 23.4 23.6 49.2 44.9 76.8 63.4 2 1.3 4.5 1.3 6.5 0 27.7-18.5 53.4-39.7 76.8-63.4 22.4-22.6 40.2-45.5 53.1-68 16.2-28.5 24.5-56.5 24.5-83.2-.1-83.3-70.8-151-157.7-151zm71.7 293.5c-22 22.1-46 42.1-71.7 59.7-25.6-17.6-49.6-37.5-71.5-59.6-61.2-61.9-74.1-111.8-74.1-142.7 0-76.6 65.3-139 145.6-139s145.6 62.3 145.6 139c0 56.1-40.2 108.5-73.9 142.6z" fill="#0635c9"/></svg>