<svg height="611pt" viewBox="-19 -50 611.99771 611" width="611pt" xmlns="http://www.w3.org/2000/svg"><path d="m221.992188 346.238281c-13.699219 0-26.625-6.347656-35-17.1875l-49.511719.421875v12.738282c.027343 24.4375 19.828125 44.242187 44.261719 44.269531h341.214843l39.933594-40.242188zm0 0" fill="#d4e1f4"/><path d="m177.722656 95.03125v-90.140625c-22.78125 2.101563-40.21875 21.199219-40.242187 44.078125v169.253906h40.242187zm0 0" fill="#d4e1f4"/><path d="m573.746094 57.011719v274.558593c-.027344 32.378907-26.269532 58.621094-58.652344 58.65625h-326.449219c-29.039062-.035156-53.695312-21.28125-58.015625-50h17.753906c4.101563 18.964844 20.859376 32.507813 40.261719 32.527344h326.449219c22.734375-.023437 41.164062-18.453125 41.183594-41.183594v-213.742187h-408.816406v92.609375h-17.46875v-153.425781c.039062-32.378907 26.273437-58.621094 58.652343-58.65625h326.449219c32.378906.035156 58.621094 26.277343 58.652344 58.65625zm-17.46875 43.34375v-43.34375c-.027344-22.734375-18.449219-41.160157-41.183594-41.183594h-326.449219c-22.730469.023437-41.15625 18.449219-41.183593 41.183594v43.34375zm0 0" fill="#0635c9"/><path d="m137.652344 227.910156h2.136718c-.355468.050782-.707031.078125-1.0625.078125-.359374 0-.714843-.027343-1.074218-.078125zm0 0" fill="#0635c9"/><g fill="#1ae5be"><path d="m326.644531 34.238281h-.082031c-13.527344-.019531-24.503906 10.933594-24.523438 24.457031-.015624 13.527344 10.933594 24.503907 24.460938 24.523438h.074219c13.527343.019531 24.511719-10.929688 24.53125-24.457031.019531-13.523438-10.929688-24.503907-24.460938-24.523438zm4.871094 29.460938c-1.3125 1.3125-3.089844 2.054687-4.941406 2.050781h-.027344c-3.875-.011719-7.011719-3.160156-7.003906-7.035156.003906-3.875 3.15625-7.015625 7.03125-7.007813h.011719c1.867187-.007812 3.65625.742188 4.96875 2.074219 2.726562 2.75 2.707031 7.191406-.039063 9.917969zm0 0"/><path d="m333.210938 210.4375h-250.332032l-2.398437-17.320312c-.007813-.0625-.007813-.113282-.023438-.175782-2.824219-18.28125-18.59375-31.746094-37.089843-31.671875h-34.632813c-4.824219 0-8.734375 3.910157-8.734375 8.734375 0 4.828125 3.910156 8.734375 8.734375 8.734375h34.632813c9.863281-.042969 18.28125 7.121094 19.816406 16.863281l18.808594 135.90625c.003906.769532.117187 1.539063.328124 2.28125l8.285157 59.878907c0 .058593.011719.109375.023437.164062 2.808594 18.28125 18.578125 31.757813 37.074219 31.683594h169.492187c4.828126 0 8.738282-3.910156 8.738282-8.734375s-3.910156-8.738281-8.738282-8.738281h-169.492187c-9.855469.039062-18.269531-7.117188-19.816406-16.855469l-7.046875-50.960938h172.933594c16-.003906 30.242187-10.136718 35.488281-25.253906l32.214843-92.9375c.914063-2.671875.492188-5.625-1.152343-7.925781-1.636719-2.300781-4.285157-3.667969-7.113281-3.671875zm-40.460938 98.816406c-2.800781 8.085938-10.421875 13.503906-18.976562 13.503906h-175.34375l-13.128907-94.847656h235.648438zm0 0"/><path d="m255.726562 82.996094h.070313c13.492187-.015625 24.433594-10.925782 24.488281-24.414063v-.085937c-.015625-13.484375-10.925781-24.429688-24.410156-24.484375h-.078125c-13.519531-.023438-24.503906 10.925781-24.523437 24.453125-.023438 13.527344 10.925781 24.507812 24.453124 24.53125zm-4.867187-29.480469c1.3125-1.304687 3.085937-2.039063 4.9375-2.03125h.027344c3.878906.003906 7.015625 3.152344 7.007812 7.03125-.007812 3.875-3.152343 7.011719-7.035156 7.007813h-.023437c-1.855469-.007813-3.640626-.753907-4.953126-2.070313-2.730468-2.761719-2.710937-7.199219.039063-9.9375zm0 0"/><path d="m253.851562 439.855469c-19.371093-.003907-35.078124 15.699219-35.078124 35.074219 0 19.371093 15.703124 35.078124 35.074218 35.078124 19.375-.003906 35.078125-15.710937 35.078125-35.085937-.027343-19.359375-15.714843-35.046875-35.074219-35.066406zm0 52.679687c-9.71875 0-17.601562-7.878906-17.605468-17.597656-.007813-9.71875 7.871094-17.601562 17.59375-17.609375 9.722656-.003906 17.605468 7.875 17.613281 17.59375-.015625 9.714844-7.882813 17.59375-17.601563 17.613281zm0 0"/><path d="m184.949219 82.773438h.089843c13.488282-.019532 24.429688-10.925782 24.488282-24.414063v-.097656c-.007813-13.496094-10.921875-24.4375-24.414063-24.472657h-.085937c-13.527344-.023437-24.507813 10.925782-24.527344 24.453126-.019531 13.527343 10.925781 24.503906 24.449219 24.53125zm.089843-31.511719h.015626c3.875 0 7.011718 3.148437 7.007812 7.023437 0 3.875-3.148438 7.015625-7.023438 7.015625h-.023437c-1.863281.003907-3.652344-.742187-4.953125-2.074219-2.003906-2.011718-2.597656-5.03125-1.511719-7.648437 1.089844-2.617187 3.652344-4.324219 6.488281-4.316406zm0 0"/><path d="m135.292969 439.855469c-19.371094-.003907-35.078125 15.699219-35.078125 35.074219 0 19.371093 15.703125 35.078124 35.074218 35.078124 19.375-.003906 35.074219-15.710937 35.074219-35.085937-.023437-19.359375-15.710937-35.046875-35.070312-35.066406zm0 52.679687c-9.71875 0-17.601563-7.878906-17.605469-17.597656-.007812-9.71875 7.871094-17.601562 17.59375-17.609375 9.722656-.003906 17.605469 7.875 17.613281 17.59375-.015625 9.714844-7.882812 17.59375-17.601562 17.613281zm0 0"/></g></svg>